<?xml version="1.0" encoding="UTF-8" standalone="no"?>
<!-- Created with Inkscape (http://www.inkscape.org/) -->

<svg
   version="1.1"
   id="svg1"
   width="883"
   height="866"
   viewBox="0 0 883 866"
   xmlns="http://www.w3.org/2000/svg"
   xmlns:svg="http://www.w3.org/2000/svg">
  <defs
     id="defs1" />
  <g
     id="g1">
    <path
       style="fill:#8d54ff;fill-opacity:1;stroke-width:52.8603;stroke-dasharray:none"
       d="M 510.98971,813.5568 628.16892,630.63373 551.35694,565.98612 c -36.38688,26.33267 -72.72325,54.9972 -109.54858,80.00322 -24.42673,-35.65048 -54.15327,-68.63972 -70.92014,-108.9301 L 201.00654,453.80772 89.39607,591.00934 75.77757,703.52479 283.03681,823.10676 Z m 128.60004,-206.67825 52.41776,-43.16649 20.90022,-75.54321 c -9.79488,-9.69939 -20.22353,-19.94204 -30.01839,-29.64145 42.66577,-98.89426 84.66083,-198.03619 126.9275,-297.10124 4.33783,-11.59105 -14.36147,-18.99309 -19.84359,-6.38168 -43.72141,99.18966 -132.66994,296.63101 -132.66994,296.63101 l -23.23697,-1.12387 -23.08584,11.66159 -41.27286,86.71268 z m -5.00906,-154.23318 c 0,0 45.17355,-76.12784 0,0 z m -228.248,3.8947 c 27.78611,0.10348 58.40392,8.65896 85.9071,4.80703 11.20489,-38.13054 20.37968,-71.32113 24.31638,-108.33843 12.25538,-3.00714 29.1859,1.18337 38.09255,-8.22685 3.89546,-4.77665 4.424,-12.36344 2.07153,-17.17624 l -36.94831,-75.59076 7.19695,-27.27196 c 0.40335,-0.30669 -44.42938,-95.08395 -44.42938,-95.08395 -0.086,-0.005 26.63354,-50.320134 26.63354,-50.320134 C 436.93006,54.278957 422.99501,42.804405 361.25622,43.315825 299.73025,45.668439 257.97216,60.154252 219.22471,93.176343 179.25529,128.74528 159.73029,183.35171 163.40985,236.24478 c 3.55983,50.8636 30.77811,95.78273 56.95286,138.16214 -1.95009,12.13494 -11.17471,55.09598 -11.17471,55.09598 56.32133,27.68156 116.75681,58.09078 173.20397,85.5149 z"
       id="path70236" />
  </g>
</svg>
